<svg width="64" height="64" fill="none" xmlns="http://www.w3.org/2000/svg"><circle cx="32" cy="32" r="32" fill="#D3B47F"/><path d="M42 29v6c0 2.5-.5 4.25-1.62 5.38L34 34l7.73-7.73c.18.79.27 1.69.27 2.73z" stroke="#fff" stroke-width="1.5" stroke-linecap="round" stroke-linejoin="round"/><path d="M41.73 26.27L26.27 41.73C23.26 41.04 22 38.96 22 35v-6c0-5 2-7 7-7h6c3.96 0 6.04 1.26 6.73 4.27z" stroke="#fff" stroke-width="1.5" stroke-linecap="round" stroke-linejoin="round"/><path d="M40.38 40.38C39.25 41.5 37.5 42 35 42h-6c-1.04 0-1.94-.09-2.73-.27L34 34l6.38 6.38z" stroke="#fff" stroke-width="1.5" stroke-linecap="round" stroke-linejoin="round"/><path d="M26.24 27.98c.68-2.93 5.08-2.93 5.76 0 .39 1.72-.69 3.18-1.64 4.08a1.8 1.8 0 01-2.48 0c-.95-.9-2.04-2.36-1.64-4.08z" stroke="#fff" stroke-width="1.5"/><path d="M29.095 28.7h.009" stroke="#fff" stroke-width="2" stroke-linecap="round" stroke-linejoin="round"/></svg>