<svg width="37" height="52" fill="none" xmlns="http://www.w3.org/2000/svg"><path d="M18.374 24.429a6.546 6.546 0 01-4.6-1.883A6.39 6.39 0 0111.868 18a6.39 6.39 0 011.906-4.546 6.546 6.546 0 014.6-1.883c1.725 0 3.38.678 4.6 1.883A6.39 6.39 0 0124.88 18a6.38 6.38 0 01-.495 2.46 6.426 6.426 0 01-1.41 2.086 6.513 6.513 0 01-2.111 1.393c-.79.323-1.636.49-2.49.49zm0-24.429a18.328 18.328 0 00-12.88 5.272A17.892 17.892 0 00.157 18c0 13.5 18.216 33.428 18.216 33.428S36.59 31.5 36.59 18c0-4.774-1.92-9.352-5.335-12.728A18.328 18.328 0 0018.374 0z" fill="red"/></svg>