<svg width="37" height="52" viewBox="0 0 37 52" fill="none" xmlns="http://www.w3.org/2000/svg">
<path d="M18.3739 24.4286C16.6485 24.4286 14.9938 23.7513 13.7737 22.5457C12.5536 21.3401 11.8682 19.705 11.8682 18C11.8682 16.295 12.5536 14.6599 13.7737 13.4543C14.9938 12.2487 16.6485 11.5714 18.3739 11.5714C20.0994 11.5714 21.7541 12.2487 22.9742 13.4543C24.1943 14.6599 24.8797 16.295 24.8797 18C24.8797 18.8442 24.7114 19.6801 24.3845 20.4601C24.0575 21.24 23.5783 21.9487 22.9742 22.5457C22.3701 23.1426 21.6529 23.6161 20.8636 23.9392C20.0743 24.2623 19.2283 24.4286 18.3739 24.4286ZM18.3739 0C13.5427 0 8.9094 1.89642 5.49321 5.27207C2.07703 8.64773 0.157837 13.2261 0.157837 18C0.157837 31.5 18.3739 51.4285 18.3739 51.4285C18.3739 51.4285 36.5901 31.5 36.5901 18C36.5901 13.2261 34.6709 8.64773 31.2547 5.27207C27.8385 1.89642 23.2052 0 18.3739 0Z" fill="red"/>
</svg>
